<svg xmlns="http://www.w3.org/2000/svg" xmlns:xlink="http://www.w3.org/1999/xlink" enable-background="new 0 0 128 128" height="100" version="1.1" width="100" xml:space="preserve" style=""><rect id="backgroundrect" width="100%" height="100%" x="0" y="0" fill="none" stroke="none" class="" style=""/><g class="currentLayer" style=""><title>Layer 1</title><g id="svg_1" class=""><g id="svg_2"><path d="M71.36000393676758,32.61899971008301 L40.58200393676758,63.395999710083004 L28.90100393676758,51.71299971008301 c-0.781,-0.782 -2.047,-0.782 -2.8280000000000003,-0.0020000000000000005 c-0.781,0.782 -0.781,2.048 0,2.829 l14.51,14.513 l33.605,-33.607 c0.781,-0.779 0.781,-2.046 0,-2.827 C73.40700393676758,31.836999710083006 72.14100393676758,31.836999710083006 71.36000393676758,32.61899971008301 zM50.129003936767575,-2.899169917469635e-7 c-27.642,0 -50.129,22.488 -50.129,50.126 c0.0020000000000000005,27.642 22.49,50.131 50.131,50.131 h0.004000000000000001 c27.638,0 50.123,-22.489 50.123,-50.131 C100.25800393676758,22.486999710083005 77.77100393676758,-2.899169917469635e-7 50.129003936767575,-2.899169917469635e-7 zM50.135003936767575,96.25699971008301 h-0.004000000000000001 c-25.435,0 -46.129,-20.694 -46.131,-46.131 c0,-25.434 20.693,-46.126 46.129,-46.126 s46.129,20.693 46.129,46.126 C96.25800393676758,75.562999710083 75.56800393676758,96.25699971008301 50.135003936767575,96.25699971008301 z" id="svg_3"/></g></g></g></svg>