<?xml version="1.0" encoding="utf-8"?>
<!-- Generator: Adobe Illustrator 22.0.1, SVG Export Plug-In . SVG Version: 6.00 Build 0)  -->
<svg version="1.1" id="Layer_1" xmlns="http://www.w3.org/2000/svg" xmlns:xlink="http://www.w3.org/1999/xlink" x="0px" y="0px"
	 viewBox="0 0 18 18" style="enable-background:new 0 0 18 18;" xml:space="preserve">
<style type="text/css">
	.st0{fill:#F2F3F2;}
	.st1{fill:#8B8D8F;}
</style>
<g id="Visualization---Final">
	<g id="Estuary-Duration-A" transform="translate(-335.000000, -852.000000)">
		<g id="third" transform="translate(114.000000, 274.000000)">
			<g id="Group-3" transform="translate(221.000000, 578.000000)">
				<rect id="Rectangle-Copy-4" x="-2" y="-2.5" class="st0" width="22" height="23"/>
				<path id="_xF017_" class="st1" d="M10,6.2v4c0,0.2-0.1,0.3-0.3,0.3H6.9c-0.2,0-0.3-0.1-0.3-0.3V9.6c0-0.2,0.1-0.3,0.3-0.3h2V6.2
					c0-0.2,0.1-0.3,0.3-0.3h0.6C9.9,5.9,10,6.1,10,6.2z M13.7,9.4c0-2.7-2.2-4.9-4.9-4.9S4,6.7,4,9.4s2.2,4.9,4.9,4.9
					S13.7,12,13.7,9.4z M15.7,9.4c0,3.8-3.1,6.9-6.9,6.9S2,13.1,2,9.4s3.1-6.9,6.9-6.9S15.7,5.6,15.7,9.4z"/>
			</g>
		</g>
	</g>
</g>
</svg>
